# xmcd
#
# Track frame offsets: 
#        150
#        13410
#        28175
#        40387
#        52287
#        68252
#        83027
#        95740
#        106822
#        118877
#        127955
#        145607
#        166052
#        174617
#        186072
#        201232
#
# Disc length: 2882 seconds
#
# Revision: 0
# Processed by: cddbd v1.5.2PL0 Copyright (c) Steve Scherf et al.
# Submitted via: ExactAudioCopy v1.0b3
#
DISCID=de0b4010
DTITLE=群星 - 国语金曲尽精英 第六辑
DYEAR=1900
DGENRE=A Cappella
TTITLE0=情人的眼泪
TTITLE1=昨夜梦醒时
TTITLE2=为什么春天要迟到
TTITLE3=南屏晚钟
TTITLE4=三年
TTITLE5=恨不钟情在当年
TTITLE6=梭罗河之恋
TTITLE7=满山花开放
TTITLE8=往日的旧梦
TTITLE9=你把爱情还给我
TTITLE10=彩云片片
TTITLE11=戏凤
TTITLE12=青春舞曲
TTITLE13=总有一天等到你
TTITLE14=美酒加咖啡
TTITLE15=雨中徘徊
EXTD=
EXTT0=
EXTT1=
EXTT2=
EXTT3=
EXTT4=
EXTT5=
EXTT6=
EXTT7=
EXTT8=
EXTT9=
EXTT10=
EXTT11=
EXTT12=
EXTT13=
EXTT14=
EXTT15=
PLAYORDER=
